<svg width="42" height="51" viewBox="0 0 42 51" fill="none" xmlns="http://www.w3.org/2000/svg">
<path d="M40.8549 43.7923C41.3251 43.7867 41.7092 44.1664 41.7092 44.6366C41.7092 45.1068 41.3251 45.4864 40.8549 45.4809L0.497353 45.007C0.294456 45.0046 0.131233 44.8395 0.131233 44.6366C0.131233 44.4337 0.294456 44.2685 0.497353 44.2661L40.8549 43.7923Z" fill="#353131"/>
<mask id="mask0_0_200" style="mask-type:alpha" maskUnits="userSpaceOnUse" x="0" y="43" width="42" height="3">
<path d="M40.8549 43.7923C41.3251 43.7867 41.7092 44.1664 41.7092 44.6366C41.7092 45.1068 41.3251 45.4864 40.8549 45.4809L0.497353 45.007C0.294456 45.0046 0.131233 44.8395 0.131233 44.6366C0.131233 44.4337 0.294456 44.2685 0.497353 44.2661L40.8549 43.7923Z" fill="#D0D0D0"/>
</mask>
<g mask="url(#mask0_0_200)">
<rect width="4.33293" height="0.550349" transform="matrix(-0.558661 0.829396 -0.896258 -0.443533 40.8549 43.05)" fill="#605858"/>
<rect width="4.33293" height="0.550349" transform="matrix(-0.558661 0.829396 -0.896258 -0.443533 31.7419 43.0499)" fill="#605858"/>
<rect width="4.33293" height="0.550349" transform="matrix(-0.558661 0.829396 -0.896258 -0.443533 36.2984 43.05)" fill="#605858"/>
<rect width="4.33293" height="0.550349" transform="matrix(-0.558661 0.829396 -0.896258 -0.443533 27.1854 43.0499)" fill="#605858"/>
<rect width="4.33293" height="0.550349" transform="matrix(-0.558661 0.829396 -0.896258 -0.443533 38.5767 43.05)" fill="#605858"/>
<rect width="4.33293" height="0.550349" transform="matrix(-0.558661 0.829396 -0.896258 -0.443533 29.4637 43.0499)" fill="#605858"/>
<rect width="4.33293" height="0.550349" transform="matrix(-0.558661 0.829396 -0.896258 -0.443533 34.0202 43.0499)" fill="#605858"/>
<rect width="4.33293" height="0.550349" transform="matrix(-0.558661 0.829396 -0.896258 -0.443533 24.9072 43.0499)" fill="#605858"/>
<rect width="4.33293" height="0.550349" transform="matrix(-0.558661 0.829396 -0.896258 -0.443533 39.7158 43.0499)" fill="#605858"/>
<rect width="4.33293" height="0.550349" transform="matrix(-0.558661 0.829396 -0.896258 -0.443533 30.6028 43.05)" fill="#605858"/>
<rect width="4.33293" height="0.550349" transform="matrix(-0.558661 0.829396 -0.896258 -0.443533 35.1593 43.05)" fill="#605858"/>
<rect width="4.33293" height="0.550349" transform="matrix(-0.558661 0.829396 -0.896258 -0.443533 26.0463 43.05)" fill="#605858"/>
<rect width="4.33293" height="0.550349" transform="matrix(-0.558661 0.829396 -0.896258 -0.443533 37.4376 43.05)" fill="#605858"/>
<rect width="4.33293" height="0.550349" transform="matrix(-0.558661 0.829396 -0.896258 -0.443533 28.3246 43.05)" fill="#605858"/>
<rect width="4.33293" height="0.550349" transform="matrix(-0.558661 0.829396 -0.896258 -0.443533 32.8811 43.05)" fill="#605858"/>
<rect width="4.33293" height="0.550349" transform="matrix(-0.558661 0.829396 -0.896258 -0.443533 23.768 43.05)" fill="#605858"/>
<rect width="4.33293" height="0.550349" transform="matrix(-0.558661 -0.829396 -0.896258 0.443533 40.855 46.3995)" fill="#605858"/>
<rect width="4.33293" height="0.550349" transform="matrix(-0.558661 -0.829396 -0.896258 0.443533 31.742 46.3995)" fill="#605858"/>
<rect width="4.33293" height="0.550349" transform="matrix(-0.558661 -0.829396 -0.896258 0.443533 36.2985 46.3995)" fill="#605858"/>
<rect width="4.33293" height="0.550349" transform="matrix(-0.558661 -0.829396 -0.896258 0.443533 27.1855 46.3995)" fill="#605858"/>
<rect width="4.33293" height="0.550349" transform="matrix(-0.558661 -0.829396 -0.896258 0.443533 38.5768 46.3995)" fill="#605858"/>
<rect width="4.33293" height="0.550349" transform="matrix(-0.558661 -0.829396 -0.896258 0.443533 29.4637 46.3995)" fill="#605858"/>
<rect width="4.33293" height="0.550349" transform="matrix(-0.558661 -0.829396 -0.896258 0.443533 34.0203 46.3995)" fill="#605858"/>
<rect width="4.33293" height="0.550349" transform="matrix(-0.558661 -0.829396 -0.896258 0.443533 24.9073 46.3995)" fill="#605858"/>
<rect width="4.33293" height="0.550349" transform="matrix(-0.558661 -0.829396 -0.896258 0.443533 39.7159 46.3995)" fill="#605858"/>
<rect width="4.33293" height="0.550349" transform="matrix(-0.558661 -0.829396 -0.896258 0.443533 30.6028 46.3996)" fill="#605858"/>
<rect width="4.33293" height="0.550349" transform="matrix(-0.558661 -0.829396 -0.896258 0.443533 35.1594 46.3995)" fill="#605858"/>
<rect width="4.33293" height="0.550349" transform="matrix(-0.558661 -0.829396 -0.896258 0.443533 26.0464 46.3996)" fill="#605858"/>
<rect width="4.33293" height="0.550349" transform="matrix(-0.558661 -0.829396 -0.896258 0.443533 37.4376 46.3995)" fill="#605858"/>
<rect width="4.33293" height="0.550349" transform="matrix(-0.558661 -0.829396 -0.896258 0.443533 28.3246 46.3996)" fill="#605858"/>
<rect width="4.33293" height="0.550349" transform="matrix(-0.558661 -0.829396 -0.896258 0.443533 32.8811 46.3995)" fill="#605858"/>
<rect width="4.33293" height="0.550349" transform="matrix(-0.558661 -0.829396 -0.896258 0.443533 23.7681 46.3996)" fill="#605858"/>
</g>
<path d="M41.0159 48.4157C41.4853 48.443 41.842 48.8485 41.8092 49.3175C41.7764 49.7866 41.3668 50.1385 40.8981 50.1002L0.671884 46.8123C0.469648 46.7958 0.318343 46.6196 0.332497 46.4172C0.346651 46.2148 0.520997 46.0614 0.723565 46.0732L41.0159 48.4157Z" fill="#353131"/>
<mask id="mask1_0_200" style="mask-type:alpha" maskUnits="userSpaceOnUse" x="0" y="46" width="42" height="5">
<path d="M41.0159 48.4157C41.4853 48.443 41.842 48.8485 41.8092 49.3175C41.7764 49.7866 41.3668 50.1385 40.8981 50.1002L0.671884 46.8123C0.469648 46.7958 0.318343 46.6196 0.332497 46.4172C0.346651 46.2148 0.520997 46.0614 0.723565 46.0732L41.0159 48.4157Z" fill="#D0D0D0"/>
</mask>
<g mask="url(#mask1_0_200)">
<rect width="4.33293" height="0.550349" transform="matrix(-0.615156 0.788406 -0.863136 -0.504972 41.0677 47.6752)" fill="#605858"/>
<rect width="4.33293" height="0.550349" transform="matrix(-0.615156 0.788406 -0.863136 -0.504972 31.9769 47.0395)" fill="#605858"/>
<rect width="4.33293" height="0.550349" transform="matrix(-0.615156 0.788406 -0.863136 -0.504972 36.5222 47.3573)" fill="#605858"/>
<rect width="4.33293" height="0.550349" transform="matrix(-0.615156 0.788406 -0.863136 -0.504972 27.4315 46.7216)" fill="#605858"/>
<rect width="4.33293" height="0.550349" transform="matrix(-0.615156 0.788406 -0.863136 -0.504972 38.795 47.5162)" fill="#605858"/>
<rect width="4.33293" height="0.550349" transform="matrix(-0.615156 0.788406 -0.863136 -0.504972 29.7041 46.8806)" fill="#605858"/>
<rect width="4.33293" height="0.550349" transform="matrix(-0.615156 0.788406 -0.863136 -0.504972 34.2495 47.1984)" fill="#605858"/>
<rect width="4.33293" height="0.550349" transform="matrix(-0.615156 0.788406 -0.863136 -0.504972 25.1588 46.5627)" fill="#605858"/>
<rect width="4.33293" height="0.550349" transform="matrix(-0.615156 0.788406 -0.863136 -0.504972 39.9313 47.5957)" fill="#605858"/>
<rect width="4.33293" height="0.550349" transform="matrix(-0.615156 0.788406 -0.863136 -0.504972 30.8405 46.9601)" fill="#605858"/>
<rect width="4.33293" height="0.550349" transform="matrix(-0.615156 0.788406 -0.863136 -0.504972 35.386 47.278)" fill="#605858"/>
<rect width="4.33293" height="0.550349" transform="matrix(-0.615156 0.788406 -0.863136 -0.504972 26.2952 46.6423)" fill="#605858"/>
<rect width="4.33293" height="0.550349" transform="matrix(-0.615156 0.788406 -0.863136 -0.504972 37.6586 47.4368)" fill="#605858"/>
<rect width="4.33293" height="0.550349" transform="matrix(-0.615156 0.788406 -0.863136 -0.504972 28.5678 46.8011)" fill="#605858"/>
<rect width="4.33293" height="0.550349" transform="matrix(-0.615156 0.788406 -0.863136 -0.504972 33.1133 47.119)" fill="#605858"/>
<rect width="4.33293" height="0.550349" transform="matrix(-0.615156 0.788406 -0.863136 -0.504972 24.0225 46.4833)" fill="#605858"/>
<rect width="4.33293" height="0.550349" transform="matrix(-0.499444 -0.866346 -0.925014 0.379933 40.8339 51.0166)" fill="#605858"/>
<rect width="4.33293" height="0.550349" transform="matrix(-0.499444 -0.866346 -0.925014 0.379933 31.7432 50.381)" fill="#605858"/>
<rect width="4.33293" height="0.550349" transform="matrix(-0.499444 -0.866346 -0.925014 0.379933 36.2886 50.6988)" fill="#605858"/>
<rect width="4.33293" height="0.550349" transform="matrix(-0.499444 -0.866346 -0.925014 0.379933 27.1978 50.0631)" fill="#605858"/>
<rect width="4.33293" height="0.550349" transform="matrix(-0.499444 -0.866346 -0.925014 0.379933 38.5612 50.8577)" fill="#605858"/>
<rect width="4.33293" height="0.550349" transform="matrix(-0.499444 -0.866346 -0.925014 0.379933 29.4705 50.222)" fill="#605858"/>
<rect width="4.33293" height="0.550349" transform="matrix(-0.499444 -0.866346 -0.925014 0.379933 34.0159 50.5399)" fill="#605858"/>
<rect width="4.33293" height="0.550349" transform="matrix(-0.499444 -0.866346 -0.925014 0.379933 24.9251 49.9042)" fill="#605858"/>
<rect width="4.33293" height="0.550349" transform="matrix(-0.499444 -0.866346 -0.925014 0.379933 39.6976 50.9372)" fill="#605858"/>
<rect width="4.33293" height="0.550349" transform="matrix(-0.499444 -0.866346 -0.925014 0.379933 30.6068 50.3015)" fill="#605858"/>
<rect width="4.33293" height="0.550349" transform="matrix(-0.499444 -0.866346 -0.925014 0.379933 35.1522 50.6193)" fill="#605858"/>
<rect width="4.33293" height="0.550349" transform="matrix(-0.499444 -0.866346 -0.925014 0.379933 26.0614 49.9836)" fill="#605858"/>
<rect width="4.33293" height="0.550349" transform="matrix(-0.499444 -0.866346 -0.925014 0.379933 37.4249 50.7783)" fill="#605858"/>
<rect width="4.33293" height="0.550349" transform="matrix(-0.499444 -0.866346 -0.925014 0.379933 28.3341 50.1426)" fill="#605858"/>
<rect width="4.33293" height="0.550349" transform="matrix(-0.499444 -0.866346 -0.925014 0.379933 32.8795 50.4604)" fill="#605858"/>
<rect width="4.33293" height="0.550349" transform="matrix(-0.499444 -0.866346 -0.925014 0.379933 23.7887 49.8247)" fill="#605858"/>
</g>
<rect x="0.272888" width="41.578" height="41.578" rx="2" fill="#EB5757"/>
<path d="M10.6771 18.1326V13.5326C9.86375 12.1992 9.12375 10.8992 8.45708 9.63257C7.80375 8.3659 7.23042 7.07257 6.73708 5.75257H8.57708C8.96375 6.87257 9.40375 7.9459 9.89708 8.97257C10.4037 9.9859 10.9437 11.0326 11.5171 12.1126C12.1304 10.9792 12.6704 9.9059 13.1371 8.89257C13.6171 7.8659 14.0504 6.81923 14.4371 5.75257H16.2371C15.7304 7.05923 15.1504 8.33257 14.4971 9.57257C13.8437 10.8126 13.1171 12.1192 12.3171 13.4926V18.1326H10.6771ZM29.2771 18.1326V13.5326C28.4638 12.1992 27.7238 10.8992 27.0571 9.63257C26.4038 8.3659 25.8304 7.07257 25.3371 5.75257H27.1771C27.5638 6.87257 28.0038 7.9459 28.4971 8.97257C29.0038 9.9859 29.5438 11.0326 30.1171 12.1126C30.7304 10.9792 31.2704 9.9059 31.7371 8.89257C32.2171 7.8659 32.6504 6.81923 33.0371 5.75257H34.8371C34.3304 7.05923 33.7504 8.33257 33.0971 9.57257C32.4438 10.8126 31.7171 12.1192 30.9171 13.4926V18.1326H29.2771ZM13.9371 30.0326H15.5771V35.8326C15.3237 35.9259 14.9171 36.0392 14.3571 36.1726C13.7971 36.3192 13.1371 36.3926 12.3771 36.3926C11.6304 36.3926 10.9504 36.2526 10.3371 35.9726C9.72375 35.6792 9.19708 35.2592 8.75708 34.7126C8.33042 34.1659 7.99708 33.4926 7.75708 32.6926C7.51708 31.8792 7.39708 30.9592 7.39708 29.9326C7.39708 28.8926 7.53042 27.9726 7.79708 27.1726C8.06375 26.3726 8.42375 25.6992 8.87708 25.1526C9.34375 24.6059 9.88375 24.1926 10.4971 23.9126C11.1104 23.6192 11.7704 23.4726 12.4771 23.4726C12.9304 23.4726 13.3304 23.5059 13.6771 23.5726C14.0237 23.6392 14.3171 23.7192 14.5571 23.8126C14.8104 23.9059 15.0171 24.0059 15.1771 24.1126C15.3371 24.2059 15.4571 24.2792 15.5371 24.3326L14.9971 25.7126C14.6904 25.4726 14.3237 25.2792 13.8971 25.1326C13.4837 24.9726 13.0437 24.8926 12.5771 24.8926C12.0704 24.8926 11.5971 25.0126 11.1571 25.2526C10.7304 25.4926 10.3637 25.8326 10.0571 26.2726C9.75042 26.7126 9.51042 27.2459 9.33708 27.8726C9.16375 28.4859 9.07708 29.1726 9.07708 29.9326C9.07708 30.6792 9.15042 31.3592 9.29708 31.9726C9.45708 32.5859 9.68375 33.1126 9.97708 33.5526C10.2704 33.9926 10.6304 34.3392 11.0571 34.5926C11.4971 34.8326 11.9971 34.9526 12.5571 34.9526C12.9437 34.9526 13.2437 34.9259 13.4571 34.8726C13.6704 34.8192 13.8304 34.7659 13.9371 34.7126V30.0326ZM29.7571 34.9726C30.5971 34.9726 31.2371 34.8126 31.6771 34.4926C32.1171 34.1726 32.3371 33.6926 32.3371 33.0526C32.3371 32.6659 32.2571 32.3392 32.0971 32.0726C31.9371 31.7926 31.7238 31.5526 31.4571 31.3526C31.1904 31.1392 30.8904 30.9592 30.5571 30.8126C30.2238 30.6526 29.8838 30.5059 29.5371 30.3726C29.1371 30.2126 28.7504 30.0326 28.3771 29.8326C28.0171 29.6326 27.6904 29.3992 27.3971 29.1326C27.1171 28.8659 26.8904 28.5526 26.7171 28.1926C26.5571 27.8326 26.4771 27.4059 26.4771 26.9126C26.4771 25.8326 26.8171 24.9926 27.4971 24.3926C28.1771 23.7792 29.1238 23.4726 30.3371 23.4726C30.6704 23.4726 30.9971 23.4992 31.3171 23.5526C31.6504 23.5926 31.9571 23.6459 32.2371 23.7126C32.5171 23.7792 32.7638 23.8592 32.9771 23.9526C33.2038 24.0459 33.3838 24.1392 33.5171 24.2326L32.9971 25.6126C32.7304 25.4526 32.3638 25.2926 31.8971 25.1326C31.4304 24.9726 30.9104 24.8926 30.3371 24.8926C29.7371 24.8926 29.2171 25.0459 28.7771 25.3526C28.3371 25.6459 28.1171 26.0926 28.1171 26.6926C28.1171 27.0392 28.1771 27.3326 28.2971 27.5726C28.4304 27.8126 28.6038 28.0259 28.8171 28.2126C29.0438 28.3859 29.3038 28.5459 29.5971 28.6926C29.8904 28.8392 30.2104 28.9859 30.5571 29.1326C31.0638 29.3459 31.5238 29.5592 31.9371 29.7726C32.3638 29.9859 32.7238 30.2392 33.0171 30.5326C33.3238 30.8259 33.5571 31.1726 33.7171 31.5726C33.8904 31.9726 33.9771 32.4592 33.9771 33.0326C33.9771 34.1126 33.6104 34.9459 32.8771 35.5326C32.1571 36.1059 31.1171 36.3926 29.7571 36.3926C29.3171 36.3926 28.9038 36.3592 28.5171 36.2926C28.1304 36.2392 27.7838 36.1659 27.4771 36.0726C27.1838 35.9792 26.9238 35.8859 26.6971 35.7926C26.4704 35.6992 26.2971 35.6126 26.1771 35.5326L26.6771 34.1726C26.9438 34.3192 27.3371 34.4926 27.8571 34.6926C28.3771 34.8792 29.0104 34.9726 29.7571 34.9726Z" fill="#F4F3F1" fill-opacity="0.94"/>
</svg>
