<svg width="12" height="12" viewBox="0 0 12 12" fill="none" xmlns="http://www.w3.org/2000/svg">
<path fill-rule="evenodd" clip-rule="evenodd" d="M6.00004 0C5.7239 0 5.50004 0.223858 5.50004 0.5V5.50001H0.5C0.223858 5.50001 0 5.72387 0 6.00001C0 6.27615 0.223858 6.50001 0.5 6.50001H5.50004V11.5C5.50004 11.7761 5.7239 12 6.00004 12C6.27618 12 6.50004 11.7761 6.50004 11.5V6.50001H11.5C11.7761 6.50001 12 6.27615 12 6.00001C12 5.72387 11.7761 5.50001 11.5 5.50001H6.50004V0.5C6.50004 0.223858 6.27618 0 6.00004 0Z" fill="#353131"/>
</svg>
